<svg width="26" height="23" viewBox="0 0 26 23" fill="none" xmlns="http://www.w3.org/2000/svg">
<path d="M2 10C1.17157 10 0.5 10.6716 0.5 11.5C0.5 12.3284 1.17157 13 2 13L2 10ZM25.0607 12.5607C25.6464 11.9749 25.6464 11.0251 25.0607 10.4393L15.5147 0.893398C14.9289 0.307611 13.9792 0.307611 13.3934 0.893398C12.8076 1.47919 12.8076 2.42893 13.3934 3.01472L21.8787 11.5L13.3934 19.9853C12.8076 20.5711 12.8076 21.5208 13.3934 22.1066C13.9792 22.6924 14.9289 22.6924 15.5147 22.1066L25.0607 12.5607ZM2 13L24 13V10L2 10L2 13Z" fill="#2D2D2D"/>
</svg>
