<svg width="84" height="84" viewBox="0 0 84 84" fill="none" xmlns="http://www.w3.org/2000/svg">
<path d="M37.5705 21.1312C41.5029 21.1312 44.6908 17.9434 44.6908 14.0109C44.6908 10.0785 41.5029 6.89062 37.5705 6.89062C33.6381 6.89062 30.4502 10.0785 30.4502 14.0109C30.4502 17.9434 33.6381 21.1312 37.5705 21.1312Z" fill="#2D2D2D"/>
<path d="M11.4517 50.0391L11.3861 49.9734C11.0907 49.7766 10.8282 49.6125 10.5986 49.35L11.3861 58.3734L1.47668 72.4172C0.065744 74.4516 0.557932 77.2078 2.52668 78.6188C4.56106 80.0297 7.31731 79.5375 8.72824 77.5688L19.4251 62.1469C19.9829 61.3594 20.3439 60.3094 20.2126 59.2594L19.8517 54.8953L11.4517 50.0391Z" fill="#2D2D2D"/>
<path d="M40.8842 79.4063H83.3436L75.403 54.6328C75.403 54.6328 70.9077 55.7484 62.0155 65.1984C61.8186 65.3953 61.5889 65.625 61.3921 65.8219L39.9327 53.4188C40.2936 52.7297 40.3592 51.9422 40.228 51.0891L32.6155 22.8703C31.9921 20.1141 29.5311 18.0141 26.6436 18.0141H12.4358C11.3858 18.0141 10.3358 18.5719 9.74518 19.4906L2.65768 31.7953C1.73893 33.2719 2.29674 35.175 3.7733 36.0281L11.7139 40.5891L10.6639 42.3609C9.38424 44.4609 10.1061 47.1516 12.2717 48.3328L30.0889 58.6031V74.8781C30.0889 77.3391 32.0577 79.3078 34.5186 79.3078C36.9796 79.3078 38.9483 77.3391 38.9483 74.8781V56.3063L58.6686 67.725C54.5999 70.0547 49.9405 70.4813 46.6264 72.45C42.5577 74.8781 40.8842 79.4063 40.8842 79.4063ZM13.2233 37.9969L8.00612 34.9781L14.2077 24.2813H21.1639L13.2233 37.9969ZM24.6749 44.625L29.5967 36.0281L33.2717 49.5469L24.6749 44.625Z" fill="#2D2D2D"/>
</svg>
