<svg width="40" height="45" viewBox="0 0 40 45" fill="none" xmlns="http://www.w3.org/2000/svg">
<path d="M34.0255 9.02011C31.5547 7.43964 29.7714 4.91089 29.2151 1.96304C29.095 1.32614 29.0289 0.670661 29.0289 0H21.1432L21.1306 31.0049C20.998 34.4769 18.0852 37.2636 14.5145 37.2636C13.4047 37.2636 12.3597 36.9914 11.4396 36.5164C9.32966 35.427 7.88573 33.2573 7.88573 30.7604C7.88573 27.1744 10.8595 24.2569 14.5145 24.2569C15.1968 24.2569 15.8513 24.3673 16.4704 24.5576V16.6595C15.8297 16.574 15.1787 16.5205 14.5145 16.5205C6.51102 16.5205 0 22.9085 0 30.7604C0 35.5779 2.4534 39.8412 6.19633 42.4192C8.55393 44.043 11.4217 45 14.5145 45C22.5179 45 29.0289 38.6123 29.0289 30.7604V15.0383C32.1218 17.2161 35.9111 18.4995 40 18.4995V10.7631C37.7974 10.7631 35.746 10.1207 34.0255 9.02011Z" fill="black"/>
</svg>
